<?xml version="1.0" standalone="no"?><!DOCTYPE svg PUBLIC "-//W3C//DTD SVG 1.1//EN" "http://www.w3.org/Graphics/SVG/1.1/DTD/svg11.dtd"><svg t="1527919246461" class="icon" style="" viewBox="0 0 1024 1024" version="1.1" xmlns="http://www.w3.org/2000/svg" p-id="7849" xmlns:xlink="http://www.w3.org/1999/xlink" width="200" height="200"><defs><style type="text/css"></style></defs><path d="M651.52 547.157333l-181.077333 180.906667a42.666667 42.666667 0 0 1-60.330667-60.245333l150.869333-150.869334L410.112 366.08a42.666667 42.666667 0 1 1 60.330667-60.330667l181.077333 180.992a42.666667 42.666667 0 0 1 0 60.416zM512 1024A512 512 0 1 1 512 0a512 512 0 0 1 0 1024z m0-85.333333A426.666667 426.666667 0 1 0 512 85.333333a426.666667 426.666667 0 0 0 0 853.333334z" p-id="7850" fill="#03ced2"></path></svg>